<svg xmlns="http://www.w3.org/2000/svg" width="28" height="28" viewBox="0 0 28 28" fill="none">
  <path d="M 2 0 C 2.53 0 3.039 0.211 3.414 0.586 C 3.789 0.961 4 1.47 4 2 C 4 2.53 3.789 3.039 3.414 3.414 C 3.039 3.789 2.53 4 2 4 C 1.47 4 0.961 3.789 0.586 3.414 C 0.211 3.039 0 2.53 0 2 C 0 1.47 0.211 0.961 0.586 0.586 C 0.961 0.211 1.47 0 2 0 Z M 2 24 C 2.53 24 3.039 24.211 3.414 24.586 C 3.789 24.961 4 25.47 4 26 C 4 26.53 3.789 27.039 3.414 27.414 C 3.039 27.789 2.53 28 2 28 C 1.47 28 0.961 27.789 0.586 27.414 C 0.211 27.039 0 26.53 0 26 C 0 25.47 0.211 24.961 0.586 24.586 C 0.961 24.211 1.47 24 2 24 Z M 26 24 C 26.53 24 27.039 24.211 27.414 24.586 C 27.789 24.961 28 25.47 28 26 C 28 26.53 27.789 27.039 27.414 27.414 C 27.039 27.789 26.53 28 26 28 C 25.47 28 24.961 27.789 24.586 27.414 C 24.211 27.039 24 26.53 24 26 C 24 25.47 24.211 24.961 24.586 24.586 C 24.961 24.211 25.47 24 26 24 Z M 26 0 C 26.53 0 27.039 0.211 27.414 0.586 C 27.789 0.961 28 1.47 28 2 C 28 2.53 27.789 3.039 27.414 3.414 C 27.039 3.789 26.53 4 26 4 C 25.47 4 24.961 3.789 24.586 3.414 C 24.211 3.039 24 2.53 24 2 C 24 1.47 24.211 0.961 24.586 0.586 C 24.961 0.211 25.47 0 26 0 Z" fill="currentColor" fill-rule="nonzero"></path>
</svg>