<?xml version="1.0" encoding="UTF-8"?>
<svg id="Logos" xmlns="http://www.w3.org/2000/svg" viewBox="0 0 313.89 283.49">
  <defs>
    
  </defs>
  <path class="cls-1" d="M92.81,147.46c0-1.05,.28-2.08,.81-2.98,.51-.89,1.26-1.65,2.17-2.18l31.17-17.99h.32s.44-.44,.44-.44c3.52-2.14,5.63-5.87,5.62-10,0-4.22-2.19-7.99-5.84-10.11l-31.71-18.31c-1.84-1.06-2.98-3.04-2.98-5.17,0-3.69,3.1-5.97,5.97-5.97,1.04,0,2.04,.27,2.97,.81l33.24,19.2c6.96,4.01,11.29,11.5,11.29,19.55s-4.33,15.54-11.29,19.55l-33.24,19.19c-1.87,1.08-4.1,1.08-5.96,0h0c-1.86-1.08-2.98-3.01-2.98-5.16Zm32.1-27.4l.47-.45h.27c1.9-1.32,2.99-3.4,2.98-5.73,0-2.52-1.31-4.77-3.49-6.03l-31.71-18.31c-.21-.12-.42-.25-.62-.39v49.47c.2-.14,.4-.26,.61-.39l31.48-18.17Zm93.18,22.24l-31.71-18.3c-3.66-2.11-5.85-5.9-5.84-10.12,0-4.22,2.19-8,5.84-10.11l31.71-18.31c.91-.52,1.66-1.27,2.17-2.17,.53-.91,.81-1.95,.81-3,0-2.15-1.11-4.08-2.97-5.15-.92-.53-1.95-.81-2.98-.81s-2.06,.28-2.98,.81l-33.24,19.19c-3.43,1.98-6.29,4.84-8.27,8.26-1.98,3.43-3.02,7.33-3.02,11.29,0,8.04,4.33,15.54,11.29,19.55l33.24,19.2c.93,.54,1.93,.81,2.96,.81,2.87,0,5.97-2.28,5.97-5.97,0-2.12-1.14-4.09-2.98-5.16Zm-29.36-34.46c-2.18,1.26-3.49,3.51-3.49,6.03,0,2.52,1.3,4.78,3.49,6.05l31.71,18.3c.21,.12,.42,.25,.62,.39v-49.47c-.2,.14-.41,.27-.62,.39l-31.71,18.31Zm21.05,48.86l-33.24-19.2c-3.56-2.06-6.62-4.91-8.93-8.33v44.67c0,1.88-.5,3.73-1.44,5.34-.94,1.62-2.29,2.96-3.9,3.9-3.24,1.87-7.42,1.87-10.66,0-3.29-1.9-5.34-5.44-5.34-9.24v-44.67c-2.31,3.41-5.38,6.27-8.93,8.33l-33.24,19.2c-3.31,1.9-7.24,1.92-10.56,.06,2.81,17.77,13.69,33.65,29.25,42.63l2.09,1.21c19.77,11.42,44.33,11.42,64.11,0l2.09-1.21c15.56-8.98,26.44-24.86,29.25-42.63-3.18,1.8-7.28,1.82-10.56-.06Z"></path>
</svg>