<?xml version="1.0" encoding="UTF-8"?>
<svg id="Logos" xmlns="http://www.w3.org/2000/svg" viewBox="0 0 567.08 226.88">
  <defs>
    
  </defs>
  <path class="cls-1" d="M88.95,117.22c0-.69,.18-1.37,.53-1.97,.34-.59,.84-1.09,1.43-1.44l20.6-11.89h.21s.29-.29,.29-.29c2.33-1.41,3.72-3.88,3.71-6.61,0-2.79-1.45-5.28-3.86-6.68l-20.96-12.1c-1.21-.7-1.97-2.01-1.97-3.41,0-2.44,2.05-3.94,3.94-3.94,.69,0,1.35,.18,1.96,.53l21.97,12.68c4.6,2.65,7.46,7.6,7.46,12.92s-2.86,10.27-7.46,12.92l-21.96,12.68c-1.24,.71-2.71,.71-3.94,0h0c-1.23-.71-1.97-1.99-1.97-3.41Zm21.21-18.11l.31-.3h.18c1.26-.87,1.97-2.25,1.97-3.79,0-1.66-.86-3.15-2.31-3.99l-20.96-12.1c-.14-.08-.28-.17-.41-.26v32.69c.13-.09,.27-.17,.4-.26l20.81-12.01Zm61.58,14.7l-20.96-12.09c-2.42-1.4-3.86-3.9-3.86-6.69,0-2.79,1.45-5.29,3.86-6.68l20.96-12.1c.6-.35,1.09-.84,1.43-1.43,.35-.6,.53-1.29,.53-1.98,0-1.42-.74-2.69-1.97-3.41-.61-.35-1.29-.53-1.97-.53s-1.36,.18-1.97,.53l-21.96,12.68c-2.27,1.31-4.16,3.2-5.46,5.46-1.31,2.26-2,4.85-2,7.46,0,5.32,2.86,10.27,7.46,12.92l21.97,12.68c.62,.36,1.27,.53,1.96,.53,1.9,0,3.95-1.51,3.95-3.95,0-1.4-.75-2.71-1.97-3.41Zm-19.4-22.77c-1.44,.83-2.31,2.32-2.31,3.99,0,1.67,.86,3.16,2.31,4l20.96,12.1c.14,.08,.28,.17,.41,.26v-32.69c-.13,.09-.27,.18-.41,.26l-20.96,12.1Zm13.91,32.29l-21.97-12.69c-2.35-1.36-4.38-3.25-5.9-5.5v29.52c0,1.24-.33,2.46-.95,3.53-.62,1.07-1.51,1.96-2.58,2.57-2.14,1.24-4.9,1.24-7.04,0-2.18-1.26-3.53-3.6-3.53-6.11v-29.52c-1.53,2.26-3.55,4.15-5.9,5.5l-21.97,12.68c-2.18,1.26-4.79,1.27-6.98,.04,1.86,11.74,9.05,22.24,19.33,28.17l1.38,.8c13.07,7.54,29.3,7.54,42.36,0l1.38-.8c10.28-5.93,17.47-16.43,19.33-28.17-2.1,1.19-4.81,1.2-6.98-.04Z"></path>
  <path class="cls-1" d="M295.75,111.43c-.76,1.13-.76,2.61,0,3.74l15.4,23.07h-12.77l-8.72-13.6c-2.18-3.39-3.33-7.33-3.33-11.34h0c0-4.02,1.16-7.95,3.33-11.35l8.72-13.6h12.77l-15.4,23.07Zm69.44-23.07h-12.77l-9.89,15.42-3.12,4.87h-10.11v-20.29h-11.24v49.88h11.24v-20.29h10.11l3.56,5.54,9.46,14.75h12.77l-15.4-23.07c-.76-1.13-.76-2.61,0-3.74l15.4-23.07Zm-95.71,0h-12.77l15.4,23.07c.76,1.13,.76,2.61,0,3.74l-15.4,23.07h12.77l8.72-13.6c2.18-3.39,3.33-7.33,3.33-11.34h0c0-4.02-1.16-7.95-3.33-11.35l-8.72-13.6Zm198.21,0v36.77h-.58l-22.53-36.77h-14.62v49.88h10.45v-36.77h.58l22.53,36.77h14.62v-49.88h-10.45Zm-229.13,28.53c0,6.94-5.69,12.57-12.71,12.57s-12.71-5.63-12.71-12.57v-28.53h-11.24v27.79c0,13.08,10.72,23.69,23.95,23.69s23.95-10.6,23.95-23.69v-27.79h-11.24v28.53Zm166.97-28.53l18.6,49.88h-11.76l-3.08-8.76h-23.93l-3.08,8.76h-11.62l18.59-49.88h16.28Zm.49,31.82l-8.37-23.82h-.65l-8.37,23.82h17.39Z"></path>
</svg>