<?xml version="1.0" encoding="UTF-8"?>
<svg id="Laag_1" xmlns="http://www.w3.org/2000/svg" xmlns:xlink="http://www.w3.org/1999/xlink" viewBox="0 0 128.45 134.84">
  <defs>
    <style>
      .cls-1 {
        isolation: isolate;
      }

      .cls-2 {
        fill: url(#Naamloos_verloop);
      }

      .cls-3 {
        fill: #fff;
      }

      .cls-4 {
        mix-blend-mode: screen;
      }

      .cls-5 {
        fill: url(#Naamloos_verloop_2);
      }

      .cls-6 {
        fill: url(#Naamloos_verloop_3);
      }
    </style>
    <linearGradient id="Naamloos_verloop" data-name="Naamloos verloop" x1="-5.86" y1="67.8" x2="22.24" y2="116.46" gradientTransform="translate(0 137.34) scale(1 -1)" gradientUnits="userSpaceOnUse">
      <stop offset="0" stop-color="#fff" stop-opacity="0"/>
      <stop offset="1" stop-color="#f2f2f2"/>
    </linearGradient>
    <linearGradient id="Naamloos_verloop_2" data-name="Naamloos verloop 2" x1="134.31" y1="67.79" x2="106.21" y2="116.46" gradientTransform="translate(0 137.34) scale(1 -1)" gradientUnits="userSpaceOnUse">
      <stop offset="0" stop-color="#fff" stop-opacity="0"/>
      <stop offset="1" stop-color="#f2f2f2"/>
    </linearGradient>
    <radialGradient id="Naamloos_verloop_3" data-name="Naamloos verloop 3" cx="64.23" cy="-21.96" fx="64.23" fy="-21.96" r="95.5" gradientTransform="translate(0 137.34) scale(1 -1)" gradientUnits="userSpaceOnUse">
      <stop offset="0" stop-color="#fff" stop-opacity="0"/>
      <stop offset="1" stop-color="#e6e6e6"/>
    </radialGradient>
  </defs>
  <g class="cls-1">
    <g id="Logos">
      <g class="cls-4">
        <path class="cls-3" d="M56.19,40.48c0,8.61-4.59,16.56-12.04,20.86l-32.11,18.54C6.69,82.97,0,79.11,0,72.92c0-1.43.38-2.82,1.08-4.01.69-1.2,1.69-2.22,2.93-2.94l30.64-17.68h.01c6-3.48,5.99-12.14-.01-15.6l-2.54-1.47L4.01,15C1.53,13.56,0,10.92,0,8.04,0,3.36,3.84,0,8.04,0c1.34,0,2.71.34,4,1.09l32.11,18.54c7.46,4.3,12.04,12.25,12.04,20.86h0Z"/>
        <path class="cls-2" d="M34.66,48.29h-.01l-30.64,17.68c-1.24.72-2.25,1.74-2.93,2.94-.7,1.2-1.08,2.58-1.08,4.01V8.04c0,2.87,1.53,5.52,4.01,6.96l28.1,16.22,2.54,1.47c6,3.46,6.01,12.12.01,15.6Z"/>
        <path class="cls-3" d="M128.45,72.93c0,4.69-3.84,8.05-8.05,8.05-1.33,0-2.71-.34-4-1.09l-32.11-18.54c-7.46-4.3-12.04-12.25-12.04-20.86,0-4.3,1.15-8.44,3.22-12.04,2.08-3.6,5.09-6.66,8.82-8.81L116.4,1.1c5.35-3.09,12.04.77,12.04,6.95,0,1.44-.38,2.82-1.08,4.02-.69,1.2-1.69,2.22-2.93,2.94l-28.1,16.22-2.54,1.47c-6.01,3.46-6.01,12.14,0,15.61l30.64,17.68c2.48,1.44,4.01,4.08,4.01,6.95h0Z"/>
        <path class="cls-5" d="M128.45,8.04v64.89c0-2.87-1.53-5.51-4.01-6.95l-30.64-17.68c-6.01-3.47-6.01-12.15,0-15.61l2.54-1.47,28.1-16.22c1.24-.71,2.25-1.74,2.93-2.94.7-1.2,1.08-2.58,1.08-4.02Z"/>
        <path class="cls-6" d="M128.45,72.93h0c0,21.51-11.47,41.39-30.1,52.14l-2.02,1.17c-19.86,11.47-44.34,11.47-64.21,0l-2.02-1.17C11.47,114.32,0,94.44,0,72.93h0c0,6.19,6.69,10.04,12.04,6.96l32.11-18.54c7.46-4.3,12.04-12.25,12.04-20.86v57.94c0,2.87,1.53,5.52,4.02,6.96,1.24.71,2.63,1.07,4.01,1.07s2.77-.36,4.01-1.07c1.25-.72,2.25-1.74,2.94-2.94.7-1.2,1.08-2.58,1.08-4.02v-57.94c0,8.61,4.59,16.56,12.04,20.86l32.11,18.54c1.29.74,2.66,1.09,4,1.09,4.2,0,8.05-3.36,8.05-8.05h0Z"/>
      </g>
    </g>
  </g>
</svg>